<svg width="480" height="480" viewBox="0 0 480 480" fill="none" xmlns="http://www.w3.org/2000/svg">
<rect width="480" height="480" fill="#0052C1"/>
<g filter="url(#filter0_i_1_101)">
<rect x="70" width="340" height="96" fill="#0052C1"/>
</g>
<path d="M106.266 158V135.594H111.328L117.734 150.031L118.203 151.344L118.719 150.031L125.156 135.594H130.234V158H125.828V143.828L125.188 145.781L120.094 158H116.391L111.297 145.781L110.656 143.828V158H106.266ZM133.339 149.906C133.339 147.438 134.084 145.406 135.574 143.812C137.063 142.219 139.006 141.422 141.402 141.422C142.485 141.422 143.48 141.594 144.386 141.938C145.292 142.281 146.084 142.797 146.761 143.484C147.438 144.161 147.964 145.047 148.339 146.141C148.725 147.224 148.917 148.469 148.917 149.875V151.156H137.621C137.683 152.24 138.068 153.12 138.777 153.797C139.485 154.464 140.402 154.797 141.527 154.797C142.329 154.797 143.016 154.635 143.589 154.312C144.162 153.979 144.563 153.51 144.792 152.906H148.824C148.324 154.646 147.443 155.99 146.183 156.938C144.933 157.885 143.339 158.359 141.402 158.359C138.996 158.359 137.048 157.589 135.558 156.047C134.079 154.505 133.339 152.458 133.339 149.906ZM137.652 148.266H144.73C144.709 147.245 144.386 146.427 143.761 145.812C143.147 145.188 142.329 144.875 141.308 144.875C140.287 144.875 139.443 145.188 138.777 145.812C138.121 146.438 137.746 147.255 137.652 148.266ZM152.163 158V141.781H155.725L156.038 143.891C156.434 143.151 157.007 142.557 157.757 142.109C158.507 141.651 159.397 141.422 160.429 141.422C162.126 141.422 163.423 141.964 164.319 143.047C165.225 144.12 165.679 145.594 165.679 147.469V158H161.475V148.375C161.475 147.427 161.277 146.703 160.882 146.203C160.496 145.703 159.929 145.453 159.179 145.453C158.335 145.453 157.642 145.792 157.1 146.469C156.569 147.146 156.304 148.13 156.304 149.422V158H152.163ZM167.908 145.547V141.781H170.565L170.596 137.844H174.783L174.752 141.781H178.471V145.547H174.721L174.658 152.109C174.658 152.953 174.815 153.557 175.127 153.922C175.44 154.276 175.987 154.453 176.768 154.453C177.341 154.453 177.908 154.375 178.471 154.219V157.875C177.846 158.104 176.971 158.219 175.846 158.219C174.023 158.219 172.674 157.818 171.799 157.016C170.924 156.214 170.492 154.911 170.502 153.109L170.565 145.547H167.908ZM180.638 153.688C180.638 152.917 180.758 152.245 180.998 151.672C181.248 151.089 181.607 150.609 182.076 150.234C182.545 149.859 183.065 149.562 183.638 149.344C184.222 149.115 184.893 148.938 185.654 148.812L189.857 148.047V147.438C189.857 146.646 189.659 146.036 189.263 145.609C188.878 145.182 188.315 144.969 187.576 144.969C186.878 144.969 186.3 145.167 185.841 145.562C185.383 145.958 185.154 146.479 185.154 147.125H181.123C181.216 145.438 181.841 144.068 182.998 143.016C184.164 141.953 185.69 141.422 187.576 141.422C189.555 141.422 191.123 141.927 192.279 142.938C193.435 143.938 194.013 145.406 194.013 147.344V158H190.466L190.201 156.016C189.18 157.578 187.633 158.359 185.56 158.359C184.102 158.359 182.914 157.938 181.998 157.094C181.091 156.25 180.638 155.115 180.638 153.688ZM184.795 153.328C184.795 153.818 184.961 154.208 185.295 154.5C185.628 154.781 186.091 154.922 186.685 154.922C187.206 154.922 187.696 154.797 188.154 154.547C188.623 154.286 188.998 153.922 189.279 153.453C189.664 152.87 189.857 152.156 189.857 151.312V150.828L186.623 151.5C186.029 151.635 185.576 151.844 185.263 152.125C184.951 152.406 184.795 152.807 184.795 153.328ZM197.899 158V134.641H202.071V158H197.899ZM106.266 196V173.594H110.656V182.344H120.25V173.594H124.672V196H120.25V186.469H110.656V196H106.266ZM127.808 187.906C127.808 185.438 128.553 183.406 130.042 181.812C131.532 180.219 133.475 179.422 135.871 179.422C136.954 179.422 137.949 179.594 138.855 179.938C139.761 180.281 140.553 180.797 141.23 181.484C141.907 182.161 142.433 183.047 142.808 184.141C143.193 185.224 143.386 186.469 143.386 187.875V189.156H132.089C132.152 190.24 132.537 191.12 133.246 191.797C133.954 192.464 134.871 192.797 135.996 192.797C136.798 192.797 137.485 192.635 138.058 192.312C138.631 191.979 139.032 191.51 139.261 190.906H143.292C142.792 192.646 141.912 193.99 140.652 194.938C139.402 195.885 137.808 196.359 135.871 196.359C133.464 196.359 131.516 195.589 130.027 194.047C128.548 192.505 127.808 190.458 127.808 187.906ZM132.121 186.266H139.199C139.178 185.245 138.855 184.427 138.23 183.812C137.615 183.188 136.798 182.875 135.777 182.875C134.756 182.875 133.912 183.188 133.246 183.812C132.589 184.438 132.214 185.255 132.121 186.266ZM145.71 191.688C145.71 190.917 145.83 190.245 146.069 189.672C146.319 189.089 146.679 188.609 147.147 188.234C147.616 187.859 148.137 187.562 148.71 187.344C149.293 187.115 149.965 186.938 150.725 186.812L154.929 186.047V185.438C154.929 184.646 154.731 184.036 154.335 183.609C153.949 183.182 153.387 182.969 152.647 182.969C151.949 182.969 151.371 183.167 150.913 183.562C150.455 183.958 150.225 184.479 150.225 185.125H146.194C146.288 183.438 146.913 182.068 148.069 181.016C149.236 179.953 150.762 179.422 152.647 179.422C154.626 179.422 156.194 179.927 157.35 180.938C158.507 181.938 159.085 183.406 159.085 185.344V196H155.538L155.272 194.016C154.251 195.578 152.705 196.359 150.632 196.359C149.173 196.359 147.986 195.938 147.069 195.094C146.163 194.25 145.71 193.115 145.71 191.688ZM149.866 191.328C149.866 191.818 150.033 192.208 150.366 192.5C150.699 192.781 151.163 192.922 151.757 192.922C152.277 192.922 152.767 192.797 153.225 192.547C153.694 192.286 154.069 191.922 154.35 191.453C154.736 190.87 154.929 190.156 154.929 189.312V188.828L151.694 189.5C151.1 189.635 150.647 189.844 150.335 190.125C150.022 190.406 149.866 190.807 149.866 191.328ZM162.971 196V172.641H167.143V196H162.971ZM169.654 183.547V179.781H172.31L172.341 175.844H176.529L176.498 179.781H180.216V183.547H176.466L176.404 190.109C176.404 190.953 176.56 191.557 176.873 191.922C177.185 192.276 177.732 192.453 178.513 192.453C179.086 192.453 179.654 192.375 180.216 192.219V195.875C179.591 196.104 178.716 196.219 177.591 196.219C175.768 196.219 174.42 195.818 173.545 195.016C172.67 194.214 172.237 192.911 172.248 191.109L172.31 183.547H169.654ZM183.306 196V172.641H187.446V181.469C188.353 180.104 189.728 179.422 191.571 179.422C193.269 179.422 194.566 179.964 195.462 181.047C196.368 182.12 196.821 183.594 196.821 185.469V196H192.618V186.375C192.618 185.427 192.42 184.703 192.024 184.203C191.639 183.703 191.071 183.453 190.321 183.453C189.478 183.453 188.785 183.792 188.243 184.469C187.712 185.146 187.446 186.13 187.446 187.422V196H183.306Z" fill="white"/>
<circle cx="78" cy="149" r="6" fill="#E9B730"/>
<defs>
<filter id="filter0_i_1_101" x="70" y="0" width="340" height="96" filterUnits="userSpaceOnUse" color-interpolation-filters="sRGB">
<feFlood flood-opacity="0" result="BackgroundImageFix"/>
<feBlend mode="normal" in="SourceGraphic" in2="BackgroundImageFix" result="shape"/>
<feColorMatrix in="SourceAlpha" type="matrix" values="0 0 0 0 0 0 0 0 0 0 0 0 0 0 0 0 0 0 127 0" result="hardAlpha"/>
<feOffset dy="-1"/>
<feComposite in2="hardAlpha" operator="arithmetic" k2="-1" k3="1"/>
<feColorMatrix type="matrix" values="0 0 0 0 1 0 0 0 0 1 0 0 0 0 1 0 0 0 1 0"/>
<feBlend mode="normal" in2="shape" result="effect1_innerShadow_1_101"/>
</filter>
</defs>
</svg>
